<mxfile host="app.diagrams.net" modified="2020-11-05T01:53:51.995Z" agent="5.0 (Macintosh; Intel Mac OS X 10_14_6) AppleWebKit/537.36 (KHTML, like Gecko) Chrome/86.0.4240.183 Safari/537.36" etag="7J7iwYLDBKRCY85l5Slv" version="13.9.1" type="github">
  <diagram id="ER9wf808RdPvLSdFSBaF" name="Page-1">
    <mxGraphModel dx="1426" dy="794" grid="1" gridSize="10" guides="1" tooltips="1" connect="1" arrows="1" fold="1" page="1" pageScale="1" pageWidth="850" pageHeight="1100" math="0" shadow="0">
      <root>
        <mxCell id="0" />
        <mxCell id="1" parent="0" />
        <mxCell id="vABOw-B9GkzC_UGe84I--7" value="" style="edgeStyle=orthogonalEdgeStyle;rounded=0;orthogonalLoop=1;jettySize=auto;html=1;fontColor=#FFFFFF;" parent="1" source="uPLkfuEaHp4f_z9Ae3kn-5" target="vABOw-B9GkzC_UGe84I--6" edge="1">
          <mxGeometry relative="1" as="geometry" />
        </mxCell>
        <mxCell id="uPLkfuEaHp4f_z9Ae3kn-5" value="" style="ellipse;whiteSpace=wrap;html=1;rounded=0;strokeColor=#2D7600;fillColor=#60a917;fontColor=#ffffff;" parent="1" vertex="1">
          <mxGeometry x="60" y="20" width="120" height="80" as="geometry" />
        </mxCell>
        <mxCell id="vABOw-B9GkzC_UGe84I--2" value="&lt;span style=&quot;font-size: 20px&quot;&gt;START&lt;/span&gt;" style="text;html=1;strokeColor=none;fillColor=none;align=center;verticalAlign=middle;whiteSpace=wrap;rounded=0;fontStyle=1;fontColor=#FFFFFF;" parent="1" vertex="1">
          <mxGeometry x="100" y="50" width="40" height="20" as="geometry" />
        </mxCell>
        <mxCell id="vABOw-B9GkzC_UGe84I--6" value="" style="whiteSpace=wrap;html=1;rounded=0;fontColor=#ffffff;strokeColor=#2D7600;fillColor=#60a917;" parent="1" vertex="1">
          <mxGeometry x="40" y="120" width="160" height="40" as="geometry" />
        </mxCell>
      </root>
    </mxGraphModel>
  </diagram>
</mxfile>
